<svg width="133" height="22" viewBox="0 0 133 22" fill="none" xmlns="http://www.w3.org/2000/svg">
<path d="M130.301 12.4688C130.293 12.4688 130.289 12.4727 130.289 12.4805C130.664 12.8633 130.977 13.3359 131.227 13.8984C131.477 14.4609 131.602 15.0312 131.602 15.6094C131.602 16.8672 131.168 17.9258 130.301 18.7852C129.441 19.6367 128.41 20.0625 127.207 20.0625H121.875V20.9062H127.207C128.16 20.9062 129.027 20.6992 129.809 20.2852C130.598 19.8711 131.234 19.2578 131.719 18.4453C132.203 17.625 132.445 16.6797 132.445 15.6094C132.445 14.4922 132.109 13.4688 131.438 12.5391C132.109 11.6406 132.445 10.5664 132.445 9.31641C132.445 8.40234 132.207 7.54688 131.73 6.75C131.254 5.94531 130.609 5.30859 129.797 4.83984C128.992 4.36328 128.129 4.125 127.207 4.125H117.082V21H117.926V4.96875H127.207C128.395 4.96875 129.422 5.40234 130.289 6.26953C131.164 7.12891 131.602 8.14453 131.602 9.31641C131.602 10.5508 131.16 11.5977 130.277 12.457L130.301 12.4688ZM127.207 16.6875C127.496 16.6875 127.738 16.5938 127.934 16.4062C128.129 16.2188 128.227 15.9531 128.227 15.6094C128.227 15.3281 128.121 15.0781 127.91 14.8594C127.707 14.6406 127.473 14.5312 127.207 14.5312H121.863V13.6875H127.207C127.699 13.6875 128.133 13.8828 128.508 14.2734C128.883 14.6562 129.07 15.1016 129.07 15.6094C129.07 16.1953 128.887 16.6641 128.52 17.0156C128.16 17.3594 127.723 17.5312 127.207 17.5312H121.875V16.6875H127.207ZM127.207 18.375C127.949 18.375 128.586 18.1172 129.117 17.6016C129.648 17.0859 129.914 16.4219 129.914 15.6094C129.914 14.875 129.641 14.2305 129.094 13.6758C128.555 13.1211 127.926 12.8438 127.207 12.8438H124.629H121.875V12H124.629H127.207C127.949 12 128.586 11.75 129.117 11.25C129.648 10.7422 129.914 10.0977 129.914 9.31641C129.914 8.61328 129.641 7.99609 129.094 7.46484C128.555 6.92578 127.926 6.65625 127.207 6.65625H119.613V21H118.77V5.8125H127.207C128.16 5.8125 128.988 6.16406 129.691 6.86719C130.402 7.5625 130.758 8.37891 130.758 9.31641C130.758 10.0039 130.582 10.625 130.23 11.1797C129.887 11.7266 129.43 12.1484 128.859 12.4453C129.43 12.7578 129.887 13.2031 130.23 13.7812C130.582 14.3516 130.758 14.9609 130.758 15.6094C130.758 16.6328 130.406 17.4922 129.703 18.1875C129.008 18.875 128.176 19.2188 127.207 19.2188H121.875V18.375H127.207ZM127.207 10.3125C127.496 10.3125 127.738 10.2266 127.934 10.0547C128.129 9.88281 128.227 9.63672 128.227 9.31641C128.227 9.06641 128.121 8.84375 127.91 8.64844C127.707 8.44531 127.473 8.34375 127.207 8.34375H121.301V21H120.457V7.5H127.207C127.699 7.5 128.133 7.68359 128.508 8.05078C128.883 8.41797 129.07 8.83984 129.07 9.31641C129.07 9.87891 128.891 10.3281 128.531 10.6641C128.172 10.9922 127.73 11.1562 127.207 11.1562H121.875V10.3125H127.207Z" fill="#006C83"/>
<path d="M109.09 12.6797C109.09 11.6797 108.781 10.9062 108.164 10.3594C107.547 9.8125 106.73 9.53906 105.715 9.53906C104.855 9.53906 104.117 9.83594 103.5 10.4297C102.883 11.0234 102.574 11.7344 102.574 12.5625C102.574 13.0312 102.637 13.4531 102.762 13.8281C102.887 14.1953 103.055 14.5039 103.266 14.7539C103.484 14.9961 103.742 15.1992 104.039 15.3633C104.336 15.5195 104.645 15.6328 104.965 15.7031C105.293 15.7734 105.641 15.8086 106.008 15.8086C106.898 15.8086 107.711 15.5898 108.445 15.1523V15.9961C107.688 16.3945 106.871 16.5938 105.996 16.5938C105.434 16.5938 104.902 16.5195 104.402 16.3711C103.91 16.2148 103.461 15.9844 103.055 15.6797C102.648 15.3672 102.324 14.9453 102.082 14.4141C101.848 13.875 101.73 13.2578 101.73 12.5625C101.73 11.4844 102.109 10.5703 102.867 9.82031C103.625 9.07031 104.574 8.69531 105.715 8.69531C106.973 8.69531 107.988 9.05078 108.762 9.76172C109.543 10.4648 109.934 11.4375 109.934 12.6797V21H109.09V12.6797ZM111.621 12.6797V21H110.777V12.6797C110.777 11.2031 110.305 10.0312 109.359 9.16406C108.414 8.28906 107.199 7.85156 105.715 7.85156C104.34 7.85156 103.191 8.30859 102.27 9.22266C101.348 10.1367 100.887 11.25 100.887 12.5625C100.887 13.3594 101.023 14.0742 101.297 14.707C101.578 15.3398 101.957 15.8477 102.434 16.2305C102.91 16.6133 103.441 16.9062 104.027 17.1094C104.621 17.3047 105.246 17.4023 105.902 17.4023C106.793 17.4023 107.641 17.1953 108.445 16.7812V17.6719C107.602 18.0234 106.75 18.1992 105.891 18.1992C105.117 18.1992 104.383 18.082 103.688 17.8477C102.992 17.6055 102.371 17.2578 101.824 16.8047C101.277 16.3438 100.844 15.75 100.523 15.0234C100.203 14.2891 100.043 13.4688 100.043 12.5625C100.043 11.0234 100.586 9.71484 101.672 8.63672C102.766 7.55078 104.113 7.00781 105.715 7.00781C106.84 7.00781 107.848 7.23828 108.738 7.69922C109.629 8.15234 110.332 8.8125 110.848 9.67969C111.363 10.5469 111.621 11.5469 111.621 12.6797ZM113.309 12.6797V21H112.465V12.6797C112.465 11.3906 112.168 10.25 111.574 9.25781C110.988 8.25781 110.184 7.49219 109.16 6.96094C108.137 6.42969 106.988 6.16406 105.715 6.16406C104.504 6.16406 103.398 6.45312 102.398 7.03125C101.398 7.60156 100.613 8.375 100.043 9.35156C99.4805 10.3281 99.1992 11.3984 99.1992 12.5625C99.1992 13.5625 99.3828 14.4766 99.75 15.3047C100.117 16.125 100.609 16.8008 101.227 17.332C101.852 17.8633 102.559 18.2773 103.348 18.5742C104.145 18.8633 104.977 19.0078 105.844 19.0078C106.727 19.0078 107.594 18.8242 108.445 18.457V19.3125C107.555 19.6484 106.68 19.8164 105.82 19.8164C104.469 19.8164 103.227 19.5117 102.094 18.9023C100.961 18.293 100.055 17.4297 99.375 16.3125C98.6953 15.1953 98.3555 13.9453 98.3555 12.5625C98.3555 11.5781 98.543 10.6406 98.918 9.75C99.3008 8.85938 99.8164 8.08984 100.465 7.44141C101.113 6.79297 101.895 6.27734 102.809 5.89453C103.723 5.51172 104.691 5.32031 105.715 5.32031C107.145 5.32031 108.434 5.625 109.582 6.23438C110.738 6.84375 111.648 7.71094 112.312 8.83594C112.977 9.96094 113.309 11.2422 113.309 12.6797ZM114.996 12.6797V21H114.152V12.6797C114.152 11.0859 113.781 9.66406 113.039 8.41406C112.297 7.15625 111.285 6.1875 110.004 5.50781C108.723 4.82031 107.293 4.47656 105.715 4.47656C104.199 4.47656 102.812 4.83984 101.555 5.56641C100.297 6.29297 99.3086 7.27734 98.5898 8.51953C97.8711 9.75391 97.5117 11.1016 97.5117 12.5625C97.5117 13.5234 97.6641 14.4375 97.9688 15.3047C98.2812 16.1641 98.7031 16.918 99.2344 17.5664C99.7734 18.207 100.391 18.7617 101.086 19.2305C101.789 19.6992 102.543 20.0547 103.348 20.2969C104.16 20.5391 104.984 20.6602 105.82 20.6602C106.742 20.6602 107.617 20.4844 108.445 20.1328V21C107.578 21.3047 106.688 21.457 105.773 21.457C104.828 21.457 103.906 21.3242 103.008 21.0586C102.117 20.793 101.289 20.4023 100.523 19.8867C99.7656 19.3633 99.0977 18.75 98.5195 18.0469C97.9414 17.3359 97.4883 16.5078 97.1602 15.5625C96.832 14.6172 96.668 13.6172 96.668 12.5625C96.668 11.3516 96.8945 10.1992 97.3477 9.10547C97.8086 8.00391 98.4336 7.05469 99.2227 6.25781C100.02 5.45312 100.98 4.81641 102.105 4.34766C103.238 3.87109 104.441 3.63281 105.715 3.63281C107.012 3.63281 108.23 3.85156 109.371 4.28906C110.512 4.72656 111.496 5.33594 112.324 6.11719C113.152 6.89062 113.805 7.84375 114.281 8.97656C114.758 10.1094 114.996 11.3438 114.996 12.6797Z" fill="#006C83"/>
<path d="M82.582 1.59375H83.4258V21H82.582V1.59375ZM87.6445 1.59375H88.4883V16.7812H95.2383V17.625H88.4883V18.4688H95.2383V19.3125H88.4883V20.1562H95.2383V21H87.6445V1.59375ZM85.957 1.59375H86.8008V21H85.957V1.59375ZM84.2695 1.59375H85.1133V21H84.2695V1.59375Z" fill="#006C83"/>
<path d="M81.0703 4.125L76.3711 12.6328L81 21H80.0625L75.4336 12.6328L80.1328 4.125H81.0703ZM79.1836 4.125L74.4844 12.6328L79.1133 21H78.1758L73.5469 12.6328L78.2461 4.125H79.1836ZM77.2969 4.125L72.5977 12.6328L77.2266 21H76.2891L71.6602 12.6328L76.3594 4.125H77.2969ZM75.4102 4.125L70.6992 12.6328L75.3398 21H74.4023L69.7617 12.6328L74.4727 4.125H75.4102ZM68.4023 4.125V21H69.2461V4.125H68.4023ZM66.7148 4.125V21H67.5586V4.125H66.7148ZM65.0273 4.125V21H65.8711V4.125H65.0273ZM63.3398 4.125V21H64.1836V4.125H63.3398Z" fill="black"/>
<path d="M49.7695 10.1836C49.1133 10.8398 48.7852 11.6328 48.7852 12.5625C48.7852 13.4922 49.1133 14.2891 49.7695 14.9531C50.4336 15.6094 51.2305 15.9375 52.1602 15.9375C53.0898 15.9375 53.8828 15.6094 54.5391 14.9531C55.2031 14.2891 55.5352 13.4922 55.5352 12.5625C55.5352 11.6328 55.2031 10.8398 54.5391 10.1836C53.8828 9.51953 53.0898 9.1875 52.1602 9.1875C51.2305 9.1875 50.4336 9.51953 49.7695 10.1836ZM49.1719 15.5508C48.3516 14.7227 47.9414 13.7266 47.9414 12.5625C47.9414 11.3984 48.3516 10.4062 49.1719 9.58594C50 8.75781 50.9961 8.34375 52.1602 8.34375C53.3242 8.34375 54.3164 8.75781 55.1367 9.58594C55.9648 10.4062 56.3789 11.3984 56.3789 12.5625C56.3789 13.7266 55.9648 14.7227 55.1367 15.5508C54.3164 16.3711 53.3242 16.7812 52.1602 16.7812C50.9961 16.7812 50 16.3711 49.1719 15.5508ZM48.5742 8.98828C47.5898 9.98047 47.0977 11.1719 47.0977 12.5625C47.0977 13.9531 47.5898 15.1445 48.5742 16.1367C49.5664 17.1289 50.7617 17.625 52.1602 17.625C53.5586 17.625 54.75 17.1289 55.7344 16.1367C56.7266 15.1445 57.2227 13.9531 57.2227 12.5625C57.2227 11.1719 56.7266 9.98047 55.7344 8.98828C54.75 7.99609 53.5586 7.5 52.1602 7.5C50.7617 7.5 49.5664 7.99609 48.5742 8.98828ZM47.0391 15.5273C46.5156 14.6211 46.2539 13.6328 46.2539 12.5625C46.2539 11.4922 46.5156 10.5039 47.0391 9.59766C47.5703 8.69141 48.2891 7.97656 49.1953 7.45312C50.1016 6.92188 51.0898 6.65625 52.1602 6.65625C53.2305 6.65625 54.2188 6.92188 55.125 7.45312C56.0312 7.97656 56.7461 8.69141 57.2695 9.59766C57.8008 10.5039 58.0664 11.4922 58.0664 12.5625C58.0664 13.6328 57.8008 14.6211 57.2695 15.5273C56.7461 16.4336 56.0312 17.1523 55.125 17.6836C54.2188 18.207 53.2305 18.4688 52.1602 18.4688C51.0898 18.4688 50.1016 18.207 49.1953 17.6836C48.2891 17.1523 47.5703 16.4336 47.0391 15.5273ZM45.9375 9.94922C45.5859 10.7773 45.4102 11.6484 45.4102 12.5625C45.4102 13.4766 45.5859 14.3516 45.9375 15.1875C46.2969 16.0156 46.7773 16.7344 47.3789 17.3438C47.9883 17.9453 48.707 18.4258 49.5352 18.7852C50.3711 19.1367 51.2461 19.3125 52.1602 19.3125C53.0742 19.3125 53.9453 19.1367 54.7734 18.7852C55.6094 18.4258 56.3281 17.9453 56.9297 17.3438C57.5391 16.7344 58.0195 16.0156 58.3711 15.1875C58.7305 14.3516 58.9102 13.4766 58.9102 12.5625C58.9102 11.6484 58.7305 10.7773 58.3711 9.94922C58.0195 9.11328 57.5391 8.39453 56.9297 7.79297C56.3281 7.18359 55.6094 6.70312 54.7734 6.35156C53.9453 5.99219 53.0742 5.8125 52.1602 5.8125C51.2461 5.8125 50.3711 5.99219 49.5352 6.35156C48.707 6.70312 47.9883 7.18359 47.3789 7.79297C46.7773 8.39453 46.2969 9.11328 45.9375 9.94922ZM45.1641 15.5156C44.7656 14.5781 44.5664 13.5938 44.5664 12.5625C44.5664 11.5312 44.7656 10.5469 45.1641 9.60938C45.5703 8.67188 46.1094 7.86719 46.7812 7.19531C47.4609 6.51562 48.2695 5.97656 49.207 5.57812C50.1445 5.17188 51.1289 4.96875 52.1602 4.96875C53.1914 4.96875 54.1758 5.17188 55.1133 5.57812C56.0508 5.97656 56.8555 6.51562 57.5273 7.19531C58.207 7.86719 58.7461 8.67188 59.1445 9.60938C59.5508 10.5469 59.7539 11.5312 59.7539 12.5625C59.7539 13.5938 59.5508 14.5781 59.1445 15.5156C58.7461 16.4531 58.207 17.2617 57.5273 17.9414C56.8555 18.6133 56.0508 19.1523 55.1133 19.5586C54.1758 19.957 53.1914 20.1562 52.1602 20.1562C51.1289 20.1562 50.1445 19.957 49.207 19.5586C48.2695 19.1523 47.4609 18.6133 46.7812 17.9414C46.1094 17.2617 45.5703 16.4531 45.1641 15.5156ZM44.3906 9.29297C43.9453 10.332 43.7227 11.4219 43.7227 12.5625C43.7227 13.7031 43.9453 14.7969 44.3906 15.8438C44.8359 16.8828 45.4336 17.7812 46.1836 18.5391C46.9414 19.2891 47.8398 19.8867 48.8789 20.332C49.9258 20.7773 51.0195 21 52.1602 21C53.3008 21 54.3906 20.7773 55.4297 20.332C56.4766 19.8867 57.375 19.2891 58.125 18.5391C58.8828 17.7812 59.4844 16.8828 59.9297 15.8438C60.375 14.7969 60.5977 13.7031 60.5977 12.5625C60.5977 11.4219 60.375 10.332 59.9297 9.29297C59.4844 8.24609 58.8828 7.34766 58.125 6.59766C57.375 5.83984 56.4766 5.23828 55.4297 4.79297C54.3906 4.34766 53.3008 4.125 52.1602 4.125C51.0195 4.125 49.9258 4.34766 48.8789 4.79297C47.8398 5.23828 46.9414 5.83984 46.1836 6.59766C45.4336 7.34766 44.8359 8.24609 44.3906 9.29297ZM43.6172 16.1719C43.125 15.0234 42.8789 13.8203 42.8789 12.5625C42.8789 11.3047 43.125 10.1055 43.6172 8.96484C44.1094 7.81641 44.7695 6.82812 45.5977 6C46.4258 5.17188 47.4102 4.51172 48.5508 4.01953C49.6992 3.52734 50.9023 3.28125 52.1602 3.28125C53.418 3.28125 54.6172 3.52734 55.7578 4.01953C56.9062 4.51172 57.8945 5.17188 58.7227 6C59.5508 6.82812 60.2109 7.81641 60.7031 8.96484C61.1953 10.1055 61.4414 11.3047 61.4414 12.5625C61.4414 13.8203 61.1953 15.0234 60.7031 16.1719C60.2109 17.3125 59.5508 18.2969 58.7227 19.125C57.8945 19.9531 56.9062 20.6133 55.7578 21.1055C54.6172 21.5977 53.418 21.8438 52.1602 21.8438C50.9023 21.8438 49.6992 21.5977 48.5508 21.1055C47.4102 20.6133 46.4258 19.9531 45.5977 19.125C44.7695 18.2969 44.1094 17.3125 43.6172 16.1719Z" fill="black"/>
<path d="M27.9961 10.1836C27.3398 10.8398 27.0117 11.6328 27.0117 12.5625C27.0117 13.4922 27.3398 14.2891 27.9961 14.9531C28.6602 15.6094 29.457 15.9375 30.3867 15.9375C31.3164 15.9375 32.1094 15.6094 32.7656 14.9531C33.4297 14.2891 33.7617 13.4922 33.7617 12.5625C33.7617 11.6328 33.4297 10.8398 32.7656 10.1836C32.1094 9.51953 31.3164 9.1875 30.3867 9.1875C29.457 9.1875 28.6602 9.51953 27.9961 10.1836ZM27.3984 15.5508C26.5781 14.7227 26.168 13.7266 26.168 12.5625C26.168 11.3984 26.5781 10.4062 27.3984 9.58594C28.2266 8.75781 29.2227 8.34375 30.3867 8.34375C31.5508 8.34375 32.543 8.75781 33.3633 9.58594C34.1914 10.4062 34.6055 11.3984 34.6055 12.5625C34.6055 13.7266 34.1914 14.7227 33.3633 15.5508C32.543 16.3711 31.5508 16.7812 30.3867 16.7812C29.2227 16.7812 28.2266 16.3711 27.3984 15.5508ZM26.8008 8.98828C25.8164 9.98047 25.3242 11.1719 25.3242 12.5625C25.3242 13.9531 25.8164 15.1445 26.8008 16.1367C27.793 17.1289 28.9883 17.625 30.3867 17.625C31.7852 17.625 32.9766 17.1289 33.9609 16.1367C34.9531 15.1445 35.4492 13.9531 35.4492 12.5625C35.4492 11.1719 34.9531 9.98047 33.9609 8.98828C32.9766 7.99609 31.7852 7.5 30.3867 7.5C28.9883 7.5 27.793 7.99609 26.8008 8.98828ZM25.2656 15.5273C24.7422 14.6211 24.4805 13.6328 24.4805 12.5625C24.4805 11.4922 24.7422 10.5039 25.2656 9.59766C25.7969 8.69141 26.5156 7.97656 27.4219 7.45312C28.3281 6.92188 29.3164 6.65625 30.3867 6.65625C31.457 6.65625 32.4453 6.92188 33.3516 7.45312C34.2578 7.97656 34.9727 8.69141 35.4961 9.59766C36.0273 10.5039 36.293 11.4922 36.293 12.5625C36.293 13.6328 36.0273 14.6211 35.4961 15.5273C34.9727 16.4336 34.2578 17.1523 33.3516 17.6836C32.4453 18.207 31.457 18.4688 30.3867 18.4688C29.3164 18.4688 28.3281 18.207 27.4219 17.6836C26.5156 17.1523 25.7969 16.4336 25.2656 15.5273ZM24.1641 9.94922C23.8125 10.7773 23.6367 11.6484 23.6367 12.5625C23.6367 13.4766 23.8125 14.3516 24.1641 15.1875C24.5234 16.0156 25.0039 16.7344 25.6055 17.3438C26.2148 17.9453 26.9336 18.4258 27.7617 18.7852C28.5977 19.1367 29.4727 19.3125 30.3867 19.3125C31.3008 19.3125 32.1719 19.1367 33 18.7852C33.8359 18.4258 34.5547 17.9453 35.1562 17.3438C35.7656 16.7344 36.2461 16.0156 36.5977 15.1875C36.957 14.3516 37.1367 13.4766 37.1367 12.5625C37.1367 11.6484 36.957 10.7773 36.5977 9.94922C36.2461 9.11328 35.7656 8.39453 35.1562 7.79297C34.5547 7.18359 33.8359 6.70312 33 6.35156C32.1719 5.99219 31.3008 5.8125 30.3867 5.8125C29.4727 5.8125 28.5977 5.99219 27.7617 6.35156C26.9336 6.70312 26.2148 7.18359 25.6055 7.79297C25.0039 8.39453 24.5234 9.11328 24.1641 9.94922ZM23.3906 15.5156C22.9922 14.5781 22.793 13.5938 22.793 12.5625C22.793 11.5312 22.9922 10.5469 23.3906 9.60938C23.7969 8.67188 24.3359 7.86719 25.0078 7.19531C25.6875 6.51562 26.4961 5.97656 27.4336 5.57812C28.3711 5.17188 29.3555 4.96875 30.3867 4.96875C31.418 4.96875 32.4023 5.17188 33.3398 5.57812C34.2773 5.97656 35.082 6.51562 35.7539 7.19531C36.4336 7.86719 36.9727 8.67188 37.3711 9.60938C37.7773 10.5469 37.9805 11.5312 37.9805 12.5625C37.9805 13.5938 37.7773 14.5781 37.3711 15.5156C36.9727 16.4531 36.4336 17.2617 35.7539 17.9414C35.082 18.6133 34.2773 19.1523 33.3398 19.5586C32.4023 19.957 31.418 20.1562 30.3867 20.1562C29.3555 20.1562 28.3711 19.957 27.4336 19.5586C26.4961 19.1523 25.6875 18.6133 25.0078 17.9414C24.3359 17.2617 23.7969 16.4531 23.3906 15.5156ZM22.6172 9.29297C22.1719 10.332 21.9492 11.4219 21.9492 12.5625C21.9492 13.7031 22.1719 14.7969 22.6172 15.8438C23.0625 16.8828 23.6602 17.7812 24.4102 18.5391C25.168 19.2891 26.0664 19.8867 27.1055 20.332C28.1523 20.7773 29.2461 21 30.3867 21C31.5273 21 32.6172 20.7773 33.6562 20.332C34.7031 19.8867 35.6016 19.2891 36.3516 18.5391C37.1094 17.7812 37.7109 16.8828 38.1562 15.8438C38.6016 14.7969 38.8242 13.7031 38.8242 12.5625C38.8242 11.4219 38.6016 10.332 38.1562 9.29297C37.7109 8.24609 37.1094 7.34766 36.3516 6.59766C35.6016 5.83984 34.7031 5.23828 33.6562 4.79297C32.6172 4.34766 31.5273 4.125 30.3867 4.125C29.2461 4.125 28.1523 4.34766 27.1055 4.79297C26.0664 5.23828 25.168 5.83984 24.4102 6.59766C23.6602 7.34766 23.0625 8.24609 22.6172 9.29297ZM21.8438 16.1719C21.3516 15.0234 21.1055 13.8203 21.1055 12.5625C21.1055 11.3047 21.3516 10.1055 21.8438 8.96484C22.3359 7.81641 22.9961 6.82812 23.8242 6C24.6523 5.17188 25.6367 4.51172 26.7773 4.01953C27.9258 3.52734 29.1289 3.28125 30.3867 3.28125C31.6445 3.28125 32.8438 3.52734 33.9844 4.01953C35.1328 4.51172 36.1211 5.17188 36.9492 6C37.7773 6.82812 38.4375 7.81641 38.9297 8.96484C39.4219 10.1055 39.668 11.3047 39.668 12.5625C39.668 13.8203 39.4219 15.0234 38.9297 16.1719C38.4375 17.3125 37.7773 18.2969 36.9492 19.125C36.1211 19.9531 35.1328 20.6133 33.9844 21.1055C32.8438 21.5977 31.6445 21.8438 30.3867 21.8438C29.1289 21.8438 27.9258 21.5977 26.7773 21.1055C25.6367 20.6133 24.6523 19.9531 23.8242 19.125C22.9961 18.2969 22.3359 17.3125 21.8438 16.1719Z" fill="black"/>
<path d="M15.7383 8.22656L15.0469 8.68359C14.625 8.05859 14.0742 7.56641 13.3945 7.20703C12.7227 6.83984 11.9922 6.65625 11.2031 6.65625C9.92188 6.65625 8.82812 7.10938 7.92188 8.01562C7.01562 8.92188 6.5625 10.0156 6.5625 11.2969C6.5625 12.5781 7.01562 13.6719 7.92188 14.5781C8.82812 15.4844 9.92188 15.9375 11.2031 15.9375C11.9922 15.9375 12.7227 15.7539 13.3945 15.3867C14.0742 15.0195 14.625 14.5234 15.0469 13.8984L15.7266 14.3906C15.2266 15.125 14.5781 15.707 13.7812 16.1367C12.9844 16.5664 12.125 16.7812 11.2031 16.7812C10.4609 16.7812 9.75 16.6367 9.07031 16.3477C8.39844 16.0586 7.81641 15.668 7.32422 15.1758C6.83203 14.6836 6.44141 14.1016 6.15234 13.4297C5.86328 12.75 5.71875 12.0391 5.71875 11.2969C5.71875 10.5547 5.86328 9.84766 6.15234 9.17578C6.44141 8.49609 6.83203 7.91016 7.32422 7.41797C7.81641 6.92578 8.39844 6.53516 9.07031 6.24609C9.75 5.95703 10.4609 5.8125 11.2031 5.8125C12.1328 5.8125 12.9961 6.03125 13.793 6.46875C14.5898 6.89844 15.2383 7.48438 15.7383 8.22656ZM17.1328 7.26562L16.4297 7.72266C15.8516 6.87891 15.1016 6.21094 14.1797 5.71875C13.2656 5.21875 12.2734 4.96875 11.2031 4.96875C10.0547 4.96875 8.99609 5.25391 8.02734 5.82422C7.05859 6.38672 6.28906 7.15234 5.71875 8.12109C5.15625 9.08984 4.875 10.1484 4.875 11.2969C4.875 12.4453 5.15625 13.5039 5.71875 14.4727C6.28906 15.4414 7.05859 16.2109 8.02734 16.7812C8.99609 17.3438 10.0547 17.625 11.2031 17.625C12.2734 17.625 13.2695 17.375 14.1914 16.875C15.1133 16.375 15.8633 15.6992 16.4414 14.8477L17.1328 15.3281C16.4766 16.2969 15.625 17.0625 14.5781 17.625C13.5391 18.1875 12.4141 18.4688 11.2031 18.4688C9.90625 18.4688 8.70703 18.1484 7.60547 17.5078C6.50391 16.8672 5.63281 15.9961 4.99219 14.8945C4.35156 13.793 4.03125 12.5938 4.03125 11.2969C4.03125 10 4.35156 8.80078 4.99219 7.69922C5.63281 6.59766 6.50391 5.72656 7.60547 5.08594C8.70703 4.44531 9.90625 4.125 11.2031 4.125C12.4141 4.125 13.5391 4.40625 14.5781 4.96875C15.625 5.53125 16.4766 6.29688 17.1328 7.26562ZM18.5391 6.32812L17.8359 6.78516C17.1016 5.70703 16.1484 4.85547 14.9766 4.23047C13.8125 3.59766 12.5547 3.28125 11.2031 3.28125C10.1172 3.28125 9.07812 3.49219 8.08594 3.91406C7.09375 4.33594 6.23828 4.90625 5.51953 5.625C4.80859 6.33594 4.24219 7.1875 3.82031 8.17969C3.39844 9.17188 3.1875 10.2109 3.1875 11.2969C3.1875 12.3828 3.39844 13.4219 3.82031 14.4141C4.24219 15.4062 4.80859 16.2617 5.51953 16.9805C6.23828 17.6914 7.09375 18.2578 8.08594 18.6797C9.07812 19.1016 10.1172 19.3125 11.2031 19.3125C12.5625 19.3125 13.8242 18.9961 14.9883 18.3633C16.1523 17.7305 17.1016 16.875 17.8359 15.7969L18.5156 16.3008C17.7031 17.4883 16.6523 18.4297 15.3633 19.125C14.082 19.8125 12.6953 20.1562 11.2031 20.1562C9.60156 20.1562 8.12109 19.7617 6.76172 18.9727C5.40234 18.1758 4.32422 17.0977 3.52734 15.7383C2.73828 14.3789 2.34375 12.8984 2.34375 11.2969C2.34375 9.69531 2.73828 8.21484 3.52734 6.85547C4.32422 5.49609 5.40234 4.42188 6.76172 3.63281C8.12109 2.83594 9.60156 2.4375 11.2031 2.4375C12.7031 2.4375 14.0977 2.78906 15.3867 3.49219C16.6758 4.1875 17.7266 5.13281 18.5391 6.32812ZM19.9219 5.36719L19.2188 5.82422C18.3281 4.51953 17.1758 3.48828 15.7617 2.73047C14.3555 1.97266 12.8359 1.59375 11.2031 1.59375C9.89062 1.59375 8.63281 1.85156 7.42969 2.36719C6.23438 2.875 5.20312 3.5625 4.33594 4.42969C3.46875 5.29688 2.77734 6.33203 2.26172 7.53516C1.75391 8.73047 1.5 9.98438 1.5 11.2969C1.5 12.6094 1.75391 13.8672 2.26172 15.0703C2.77734 16.2656 3.46875 17.2969 4.33594 18.1641C5.20312 19.0312 6.23438 19.7227 7.42969 20.2383C8.63281 20.7461 9.89062 21 11.2031 21C12.8359 21 14.3594 20.6172 15.7734 19.8516C17.1875 19.0859 18.3398 18.0508 19.2305 16.7461L19.9102 17.2617C18.9414 18.668 17.6914 19.7852 16.1602 20.6133C14.6289 21.4336 12.9766 21.8438 11.2031 21.8438C9.77344 21.8438 8.40625 21.5625 7.10156 21C5.80469 20.4453 4.68359 19.6992 3.73828 18.7617C2.80078 17.8164 2.05078 16.6953 1.48828 15.3984C0.933594 14.0938 0.65625 12.7266 0.65625 11.2969C0.65625 9.86719 0.933594 8.50391 1.48828 7.20703C2.05078 5.90234 2.80078 4.78125 3.73828 3.84375C4.68359 2.89844 5.80469 2.14844 7.10156 1.59375C8.40625 1.03125 9.77344 0.75 11.2031 0.75C12.9844 0.75 14.6406 1.16406 16.1719 1.99219C17.7031 2.82031 18.9531 3.94531 19.9219 5.36719Z" fill="black"/>
</svg>
